<?xml version="1.0" encoding="UTF-8"?>
<!DOCTYPE svg PUBLIC "-//W3C//DTD SVG 1.1//EN" "http://www.w3.org/Graphics/SVG/1.1/DTD/svg11.dtd">
<svg xmlns="http://www.w3.org/2000/svg" version="1.1" width="46px" height="65px" style="shape-rendering:geometricPrecision; text-rendering:geometricPrecision; image-rendering:optimizeQuality; fill-rule:evenodd; clip-rule:evenodd" xmlns:xlink="http://www.w3.org/1999/xlink">
<g><path style="opacity:0.889" fill="#6b6bfa" d="M 16.5,-0.5 C 20.5,-0.5 24.5,-0.5 28.5,-0.5C 38.2089,4.60545 40.8756,12.2721 36.5,22.5C 37.0219,23.6074 37.3552,24.7741 37.5,26C 35.0212,29.9029 32.6879,33.9029 30.5,38C 24.3877,38.9094 18.3877,38.576 12.5,37C 11.7511,35.2663 11.2511,33.433 11,31.5C 6.84555,29.058 6.01222,25.8913 8.5,22C 3.79454,11.8147 6.46121,4.31471 16.5,-0.5 Z M 13.5,11.5 C 18.6824,11.786 20.0157,13.9527 17.5,18C 11.6815,18.5262 10.3481,16.3595 13.5,11.5 Z M 27.5,11.5 C 32.6824,11.786 34.0157,13.9527 31.5,18C 25.6815,18.5262 24.3481,16.3595 27.5,11.5 Z M 24.5,25.5 C 20.4159,26.0547 19.7492,25.0547 22.5,22.5C 23.4252,23.3569 24.0919,24.3569 24.5,25.5 Z"/></g>
<g><path style="opacity:0.834" fill="#6b6bfa" d="M 45.5,42.5 C 45.5,44.1667 45.5,45.8333 45.5,47.5C 42.4616,49.9739 39.295,49.9739 36,47.5C 34.2741,47.9459 32.7741,48.7792 31.5,50C 33.519,50.4497 35.3523,51.283 37,52.5C 39.8295,49.8987 42.6629,49.8987 45.5,52.5C 45.5,53.8333 45.5,55.1667 45.5,56.5C 43.5144,58.9619 41.8477,61.6285 40.5,64.5C 39.1667,64.5 37.8333,64.5 36.5,64.5C 35.129,62.5414 34.129,60.3748 33.5,58C 30.3821,56.9413 27.3821,55.6079 24.5,54C 19.6408,54.2547 14.9742,55.4214 10.5,57.5C 10.8132,60.8374 9.47991,63.1707 6.5,64.5C 6.16667,64.5 5.83333,64.5 5.5,64.5C 4.46905,63.7515 3.30238,63.0848 2,62.5C 1.95042,60.256 1.11709,58.5893 -0.5,57.5C -0.5,55.5 -0.5,53.5 -0.5,51.5C 2.27964,48.8937 5.11297,48.8937 8,51.5C 10.0364,51.0464 11.8697,50.2131 13.5,49C 11.481,48.5503 9.64769,47.717 8,46.5C 5.41487,48.7355 2.58154,49.0688 -0.5,47.5C -0.5,45.5 -0.5,43.5 -0.5,41.5C 1.0672,40.3192 1.90054,38.6526 2,36.5C 7.38214,32.9918 10.5488,34.4918 11.5,41C 15.1717,42.503 18.8383,44.003 22.5,45.5C 26.2817,44.2946 29.9484,42.7946 33.5,41C 34.4884,35.1719 37.4884,33.6719 42.5,36.5C 42.9137,38.9192 43.9137,40.9192 45.5,42.5 Z"/></g>
</svg>
