<svg width="46" height="65" viewBox="0 0 46 65" fill="none" xmlns="http://www.w3.org/2000/svg">
<path d="M45.1624 56.7203C44.6293 57.8587 43.6289 58.5735 42.4986 58.838C43.0236 59.871 43.1502 61.0978 42.6333 62.237C41.7375 64.212 39.4063 65.0769 37.4444 64.1811C35.4613 63.2829 34.5907 60.9542 35.4986 58.9841C35.5286 58.8965 35.6082 58.8543 35.6504 58.7699L22.7839 52.9886L9.75688 58.4088C9.79907 58.4891 9.86804 58.5346 9.89725 58.619C10.746 60.615 9.81692 62.9218 7.81113 63.7706C5.81508 64.6022 3.51719 63.6699 2.67415 61.6698C2.18649 60.5095 2.3504 59.2957 2.9054 58.2782C1.78809 57.9804 0.80224 57.2282 0.306473 56.0817C-0.527649 54.0816 0.396539 51.774 2.40314 50.9423C4.39838 50.0984 6.69708 51.0307 7.54013 53.026C7.56934 53.1104 7.56041 53.1988 7.59206 53.2791L15.8164 49.8583L7.69024 46.2078C7.65859 46.2881 7.66914 46.3798 7.62938 46.4601C6.73359 48.431 4.40243 49.3 2.43154 48.405C0.465508 47.506 -0.397824 45.1781 0.497153 43.2039C1.02051 42.0647 2.02827 41.3596 3.1545 41.0773C2.62059 40.0484 2.4932 38.8216 3.01412 37.6823C3.91316 35.7074 6.24107 34.8465 8.21602 35.7374C10.191 36.6364 11.0584 38.9652 10.1504 40.9393C10.1212 41.0237 10.0392 41.0691 10.01 41.1405L22.8773 46.9348L35.8978 41.5195C35.8556 41.4318 35.7842 41.3896 35.7461 41.3012C34.9063 39.2922 35.8386 36.9983 37.8428 36.1585C39.8299 35.3139 42.1286 36.2429 42.9733 38.2503C43.4601 39.4017 43.2962 40.6285 42.7331 41.6452C43.8593 41.9438 44.8508 42.679 45.3426 43.8474C46.1742 45.8386 45.2501 48.1324 43.2459 48.9771C41.2507 49.8217 38.952 48.8894 38.1073 46.8974C38.07 46.8131 38.087 46.7214 38.057 46.6419L29.8342 50.0579L37.9604 53.7132C37.9896 53.6329 37.9807 53.5453 38.0188 53.4609C38.926 51.49 41.2458 50.6202 43.2118 51.5192C45.1916 52.419 46.0623 54.738 45.1624 56.7203ZM36.0244 22.7469C37.0411 23.6759 37.6845 24.9652 37.6845 26.3982C37.6845 28.7699 35.9279 30.6791 33.5918 31.2658V33.0468C33.5918 36.1155 31.0789 38.6374 28.0037 38.6374H17.6421C14.5669 38.6374 12.0523 36.1163 12.0523 33.0468V31.2739C9.70333 30.6881 7.94096 28.778 7.94096 26.3982C7.94096 24.9571 8.58602 23.667 9.61732 22.7387C8.01642 20.4279 7.06627 17.6861 7.06627 14.7302C7.06708 6.60076 14.1198 0 22.8229 0C31.5203 0 38.5828 6.60076 38.5828 14.7302C38.5828 17.691 37.6294 20.4319 36.0244 22.7469ZM20.224 15.8021C20.224 13.475 18.2701 11.5909 15.8692 11.5909C13.4715 11.5909 11.5055 13.475 11.5055 15.8021C11.5055 18.13 13.4715 20.0141 15.8692 20.0141C18.2709 20.01 20.224 18.13 20.224 15.8021ZM27.3741 28.1922L23.145 21.0429L18.761 28.335L23.1036 26.2278L27.3741 28.1922ZM34.1298 15.8021C34.1298 13.475 32.1719 11.5909 29.7774 11.5909C27.3741 11.5909 25.4226 13.475 25.4226 15.8021C25.4226 18.13 27.3741 20.0141 29.7774 20.0141C32.1751 20.01 34.1298 18.13 34.1298 15.8021Z" fill="#fff"/>
</svg>
