<?xml version="1.0" encoding="iso-8859-1"?>
<!-- Generator: Adobe Illustrator 17.1.0, SVG Export Plug-In . SVG Version: 6.00 Build 0)  -->
<!DOCTYPE svg PUBLIC "-//W3C//DTD SVG 1.1//EN" "http://www.w3.org/Graphics/SVG/1.1/DTD/svg11.dtd">
<svg fill="#fff" version="1.1" id="Capa_1" xmlns="http://www.w3.org/2000/svg" xmlns:xlink="http://www.w3.org/1999/xlink" x="0px" y="0px"
	 viewBox="0 0 226.386 226.386" style="enable-background:new 0 0 226.386 226.386;" xml:space="preserve">
<path d="M55.825,134.166c9.156,7.244,29.087,14.215,55.369,14.215c32.786,0,55.676-10.847,60.105-19.541
	c-0.204-3.872-0.719-7.72-1.576-11.464c-6.527-28.542-30.974-49.258-58.127-49.258c-1.121,0-2.242,0.044-3.363,0.115L95.568,34.208
	c3.665-4.228,4.975-10.278,2.89-15.882c-2.292-6.157-8.244-10.293-14.813-10.293c-1.884,0-3.738,0.335-5.512,0.995
	c-3.956,1.472-7.102,4.397-8.858,8.236c-1.756,3.839-1.912,8.132-0.44,12.087c2.042,5.486,6.993,9.36,12.693,10.141l11.844,31.819
	C68.71,80.185,53.279,106.198,55.825,134.166z M226.283,165.01c-0.356-4.127-3.992-7.183-8.118-6.827
	c-4.127,0.356-7.184,3.991-6.827,8.118c0.032,0.369,0.048,0.67,0.048,0.92c0,8.174-9.839,17.116-26.318,23.919
	c-19.076,7.875-44.602,12.212-71.874,12.212s-52.799-4.337-71.875-12.212C24.839,184.338,15,175.396,15,167.222
	c0-0.285,0.019-0.567,0.04-0.85c0.315-4.13-2.776-7.734-6.906-8.05c-4.139-0.317-7.734,2.775-8.051,6.906
	C0.026,165.971,0,166.604,0,167.222c0,14.89,12.642,28.309,35.595,37.784c20.85,8.607,48.408,13.347,77.599,13.347
	s56.748-4.74,77.598-13.347c22.953-9.476,35.595-22.894,35.595-37.784C226.386,166.536,226.352,165.813,226.283,165.01z
	 M199.284,140.46c-0.354-4.127-3.993-7.183-8.113-6.832c-4.127,0.354-7.186,3.986-6.832,8.113c0.015,0.175,0.028,0.35,0.028,0.525
	c0,10.184-27.727,24.978-71.174,24.978c-43.448,0-71.175-14.793-71.175-24.978c0-0.16,0.011-0.318,0.023-0.477
	c0.321-4.129-2.767-7.738-6.896-8.059c-4.137-0.314-7.738,2.766-8.06,6.896c-0.042,0.544-0.068,1.091-0.068,1.64
	c0,25.966,44.399,39.978,86.175,39.978s86.174-14.011,86.174-39.978C199.367,141.703,199.34,141.112,199.284,140.46z"/>
<g>
</g>
<g>
</g>
<g>
</g>
<g>
</g>
<g>
</g>
<g>
</g>
<g>
</g>
<g>
</g>
<g>
</g>
<g>
</g>
<g>
</g>
<g>
</g>
<g>
</g>
<g>
</g>
<g>
</g>
</svg>
