<?xml version="1.0" encoding="iso-8859-1"?>
<!-- Generator: Adobe Illustrator 17.1.0, SVG Export Plug-In . SVG Version: 6.00 Build 0)  -->
<!DOCTYPE svg PUBLIC "-//W3C//DTD SVG 1.1//EN" "http://www.w3.org/Graphics/SVG/1.1/DTD/svg11.dtd">
<svg fill="#fff" version="1.1" id="Capa_1" xmlns="http://www.w3.org/2000/svg" xmlns:xlink="http://www.w3.org/1999/xlink" x="0px" y="0px"
	 viewBox="0 0 365.981 365.981" style="enable-background:new 0 0 365.981 365.981;" xml:space="preserve">
<path d="M365.973,167.036c-0.004-4.124-0.008-8.279-0.008-12.457c0-28.162-9.913-54.911-27.911-75.321
	c-19.728-22.37-47.275-35.242-79.664-37.226l-0.155-0.01L106.08,42.159l-0.37,0.014C73.853,44.566,46.785,57.595,27.431,79.85
	c-17.679,20.329-27.416,46.869-27.416,74.73c0,4.151-0.004,8.279-0.008,12.377C-0.032,207.79-0.07,246.36,4.03,274.461
	c3.1,21.248,9.938,49.497,33.425,49.497c19.515,0,35.111-20.246,56.697-48.268c13.234-17.181,28.235-36.652,47.407-55.824
	c5.882-5.882,21.787-10.086,41.537-10.986c19.628,0.886,35.465,5.089,41.362,10.985c19.179,19.18,34.179,38.657,47.412,55.843
	c21.571,28.011,37.156,48.25,56.667,48.25c23.48,0,30.316-28.233,33.415-49.471C366.052,246.403,366.014,207.851,365.973,167.036z
	 M84.908,180.794c-21.91,0-39.734-17.825-39.734-39.734c0-21.909,17.825-39.734,39.734-39.734c21.91,0,39.734,17.825,39.734,39.734
	C124.643,162.969,106.818,180.794,84.908,180.794z M214.084,157.475c0,3.866-3.134,7-7,7h-42c-3.866,0-7-3.134-7-7v-32
	c0-3.866,3.134-7,7-7h42c3.866,0,7,3.134,7,7V157.475z M333.084,144.535c0,6.032-4.875,10.939-10.867,10.939h-18.072
	c-2.743,0-5.06,2.317-5.06,5.061v18.072c0,5.992-4.907,10.867-10.94,10.867h-5.904c-6.152,0-11.157-4.875-11.157-10.867v-18.072
	c0-2.79-2.173-5.061-4.843-5.061h-19.29c-5.992,0-10.867-4.907-10.867-10.939v-5.904c0-6.151,4.875-11.156,10.867-11.156h19.29
	c2.761,0,4.843-2.082,4.843-4.844v-19.289c0-5.992,5.005-10.867,11.157-10.867h5.904c6.032,0,10.94,4.875,10.94,10.867v19.289
	c0,2.671,2.27,4.844,5.06,4.844h18.072c5.992,0,10.867,5.005,10.867,11.156V144.535z"/>
<g>
</g>
<g>
</g>
<g>
</g>
<g>
</g>
<g>
</g>
<g>
</g>
<g>
</g>
<g>
</g>
<g>
</g>
<g>
</g>
<g>
</g>
<g>
</g>
<g>
</g>
<g>
</g>
<g>
</g>
</svg>
