<?xml version="1.0" encoding="iso-8859-1"?>
<!-- Generator: Adobe Illustrator 16.0.0, SVG Export Plug-In . SVG Version: 6.00 Build 0)  -->
<!DOCTYPE svg PUBLIC "-//W3C//DTD SVG 1.1//EN" "http://www.w3.org/Graphics/SVG/1.1/DTD/svg11.dtd">
<svg fill="#fff" version="1.1" id="Capa_1" xmlns="http://www.w3.org/2000/svg" xmlns:xlink="http://www.w3.org/1999/xlink" x="0px" y="0px"
	 width="36.752px" height="36.752px" viewBox="0 0 36.752 36.752" style="enable-background:new 0 0 36.752 36.752;"
	 xml:space="preserve">
<g>
	<path d="M33.761,16.134h-0.866c-0.752-1.5-1.846-2.8-3.179-3.804V6.989l-3.589,3.588c-0.906-0.25-1.842-0.426-2.829-0.426h-0.219
		c0.187-0.523,0.306-1.08,0.306-1.668c0-2.769-2.242-5.01-5.01-5.01c-2.768,0-5.012,2.241-5.012,5.01
		c0,0.59,0.121,1.147,0.308,1.674c-4.668,0.058-8.575,3.111-9.989,7.316C3.54,17.461,3.4,17.452,3.253,17.452
		C1.457,17.452,0,18.183,0,19.079c0,0.869,1.375,1.578,3.095,1.619c0,0.062-0.016,0.117-0.016,0.18
		c0,5.072,3.532,9.297,8.263,10.414v-0.389c0,1.312,1.063,2.375,2.374,2.375s2.374-1.062,2.374-2.375v0.699h4.748v-0.699
		c0,1.312,1.062,2.375,2.374,2.375s2.374-1.062,2.374-2.375v0.443c3.214-0.699,5.857-2.852,7.286-5.721h0.894
		c1.648,0,2.986-2.127,2.986-4.748C36.749,18.261,35.412,16.134,33.761,16.134z M27.343,17.497c-0.657,0-1.188-0.532-1.188-1.188
		c0-0.654,0.531-1.188,1.188-1.188c0.655,0,1.188,0.531,1.188,1.188C28.527,16.965,27.998,17.497,27.343,17.497z"/>
</g>
<g>
</g>
<g>
</g>
<g>
</g>
<g>
</g>
<g>
</g>
<g>
</g>
<g>
</g>
<g>
</g>
<g>
</g>
<g>
</g>
<g>
</g>
<g>
</g>
<g>
</g>
<g>
</g>
<g>
</g>
</svg>
