<?xml version="1.0" encoding="iso-8859-1"?>
<!-- Generator: Adobe Illustrator 18.0.0, SVG Export Plug-In . SVG Version: 6.00 Build 0)  -->
<!DOCTYPE svg PUBLIC "-//W3C//DTD SVG 1.1//EN" "http://www.w3.org/Graphics/SVG/1.1/DTD/svg11.dtd">
<svg fill="#fff" version="1.1" id="Capa_1" xmlns="http://www.w3.org/2000/svg" xmlns:xlink="http://www.w3.org/1999/xlink" x="0px" y="0px"
	 viewBox="0 0 61.515 61.515" style="enable-background:new 0 0 61.515 61.515;" xml:space="preserve">
<path style="fill:#fff;" d="M55.604,37.233c-0.554-0.848-1.499-1.359-2.511-1.359h-4.215c-1.657,0-3,1.343-3,3
	c0,1.351,0.893,2.493,2.12,2.869c-3.391,4.621-8.525,7.708-14.24,8.518V26.559h6.649c1.657,0,3-1.343,3-3c0-1.657-1.343-3-3-3
	h-6.649v-6.35c2.604-1.153,4.423-3.756,4.423-6.787C38.181,3.324,34.856,0,30.757,0c-4.099,0-7.423,3.324-7.423,7.423
	c0,3.031,1.819,5.633,4.423,6.787v6.35h-6.648c-1.657,0-3,1.343-3,3c0,1.657,1.343,3,3,3h6.648v23.702
	c-5.716-0.81-10.85-3.896-14.24-8.518c1.227-0.376,2.12-1.518,2.12-2.869c0-1.657-1.343-3-3-3H8.422
	c-1.013,0-1.957,0.511-2.511,1.359c-0.554,0.848-0.643,1.918-0.236,2.845c3.96,9.037,12.431,15.155,22.083,16.219v2.218
	c0,1.657,1.343,3,3,3c1.657,0,3-1.343,3-3v-2.218c9.651-1.064,18.123-7.182,22.083-16.219
	C56.247,39.151,56.158,38.081,55.604,37.233z"/>
<g>
</g>
<g>
</g>
<g>
</g>
<g>
</g>
<g>
</g>
<g>
</g>
<g>
</g>
<g>
</g>
<g>
</g>
<g>
</g>
<g>
</g>
<g>
</g>
<g>
</g>
<g>
</g>
<g>
</g>
</svg>
