<?xml version="1.0" encoding="iso-8859-1"?>
<!-- Generator: Adobe Illustrator 19.0.0, SVG Export Plug-In . SVG Version: 6.00 Build 0)  -->
<svg fill="#fff" version="1.1" id="Layer_1" xmlns="http://www.w3.org/2000/svg" xmlns:xlink="http://www.w3.org/1999/xlink" x="0px" y="0px"
	 viewBox="0 0 512 512" style="enable-background:new 0 0 512 512;" xml:space="preserve">
<g>
	<g>
		<path d="M510.154,314.796L405.133,176.04l13.728-13.728c3.189-3.189,3.189-8.361,0-11.55l-8.586-8.586l21.299-21.299
			c3.988-3.987,3.988-10.453,0-14.442l-26.009-26.009c-3.987-3.987-10.453-3.987-14.441,0l-21.301,21.299l-8.736-8.736
			c-3.189-3.189-8.361-3.189-11.55,0l-13.749,13.748L197.204,1.845c-3.065-2.32-7.357-2.52-10.434-0.216
			c-3.865,2.894-4.532,8.266-1.717,11.985l105.056,138.803l-17.91,17.91c-3.189,3.189-3.189,8.361,0,11.55l57.773,57.773
			c3.189,3.189,8.361,3.189,11.55,0l17.89-17.89l138.973,105.186c3.72,2.816,9.093,2.148,11.985-1.717
			C512.674,322.152,512.474,317.861,510.154,314.796z"/>
	</g>
</g>
<g>
	<g>
		<path d="M256.833,214.716L2.991,468.56c-3.987,3.987-3.987,10.453,0,14.442L29,509.01c3.987,3.987,10.453,3.987,14.442,0
			l253.842-253.844L256.833,214.716z"/>
	</g>
</g>
<g>
</g>
<g>
</g>
<g>
</g>
<g>
</g>
<g>
</g>
<g>
</g>
<g>
</g>
<g>
</g>
<g>
</g>
<g>
</g>
<g>
</g>
<g>
</g>
<g>
</g>
<g>
</g>
<g>
</g>
</svg>
