<?xml version="1.0" encoding="iso-8859-1"?>
<!-- Generator: Adobe Illustrator 19.0.0, SVG Export Plug-In . SVG Version: 6.00 Build 0)  -->
<svg version="1.1" id="Layer_1" xmlns="http://www.w3.org/2000/svg" xmlns:xlink="http://www.w3.org/1999/xlink" x="0px" y="0px"
	 viewBox="0 0 392.598 392.598" fill="#a7a7a7" style="enable-background:new 0 0 392.598 392.598;" xml:space="preserve">
<g>
	<g>
		<path d="M381.802,97.487c-6.982-6.982-16.162-10.731-25.859-10.731c-9.826,0-19.006,3.814-25.859,10.731l-9.374,9.374V10.925
			C320.711,4.913,315.863,0,309.786,0H41.826C18.812,0,0,18.747,0,41.826v308.945c0,23.014,18.747,41.826,41.826,41.826h267.895
			c6.012,0,10.925-4.848,10.925-10.925V210.554l61.22-61.22c6.982-6.982,10.731-16.162,10.731-25.859
			C392.533,113.713,388.784,104.469,381.802,97.487z M161.616,21.85h39.952V64.97L188.186,54.82c-3.879-2.909-9.244-2.909-13.123,0
			L161.616,64.97V21.85z M59.022,370.812H41.826c-11.055,0-20.04-8.986-20.04-20.04V41.891c0-11.055,8.986-20.04,20.04-20.04h17.261
			C59.022,21.85,59.022,370.812,59.022,370.812z M298.925,370.877h-0.129v-0.065H80.873V227.879h14.804
			c6.012,0,10.925-4.849,10.925-10.925c0-6.012-4.848-10.925-10.925-10.925H80.808v-19.394h40.598
			c6.012,0,10.925-4.849,10.925-10.925c0-6.012-4.848-10.925-10.925-10.925H80.808V21.915h58.958v64.97
			c0,4.202,2.327,7.887,6.012,9.762c3.685,1.875,8.145,1.422,11.442-1.099l24.372-18.36l24.372,18.36
			c2.78,2.069,8.469,2.521,11.442,1.099c3.685-1.939,6.012-5.624,6.012-9.762V21.85h75.313v106.861L176.614,250.893
			c-2.004,2.004-3.168,4.784-3.168,7.758v36.396c0,6.012,4.849,10.925,10.925,10.925h36.461c2.844,0,5.624-1.164,7.758-3.168
			l70.335-70.335V370.877z M216.307,284.057h-21.01v-21.01l133.172-133.042l21.01,21.01L216.307,284.057z M366.352,133.947
			l-1.552,1.552l-20.945-21.01l1.552-1.552c5.624-5.624,15.386-5.624,21.01,0C372.234,118.82,371.523,128.776,366.352,133.947z"/>
	</g>
</g>
<g>
</g>
<g>
</g>
<g>
</g>
<g>
</g>
<g>
</g>
<g>
</g>
<g>
</g>
<g>
</g>
<g>
</g>
<g>
</g>
<g>
</g>
<g>
</g>
<g>
</g>
<g>
</g>
<g>
</g>
</svg>
