<?xml version="1.0" standalone="no"?>
<!DOCTYPE svg PUBLIC "-//W3C//DTD SVG 20010904//EN"
 "http://www.w3.org/TR/2001/REC-SVG-20010904/DTD/svg10.dtd">
<svg version="1.0" xmlns="http://www.w3.org/2000/svg"
 width="494.000000pt" height="512.000000pt" viewBox="0 0 494.000000 512.000000"
 preserveAspectRatio="xMidYMid meet">

<g transform="translate(0.000000,512.000000) scale(0.100000,-0.100000)"
fill="#a7a7a7" stroke="none">
<path d="M2300 5109 c-210 -31 -350 -73 -513 -154 -392 -195 -697 -563 -808
-972 -11 -43 -23 -91 -25 -108 -3 -16 -7 -41 -10 -55 -27 -121 -24 -391 5
-535 6 -27 13 -61 15 -75 25 -134 112 -334 210 -485 127 -194 324 -385 498
-483 27 -15 48 -29 48 -32 0 -3 -48 -22 -107 -43 -330 -119 -634 -317 -904
-586 -293 -294 -474 -585 -601 -966 -59 -178 -104 -392 -99 -465 6 -84 66
-142 146 -144 46 -1 83 20 117 65 10 14 28 78 43 153 72 376 225 707 466 1006
170 210 418 424 638 549 197 111 479 219 641 244 19 3 62 10 95 16 134 23 375
31 495 17 25 -3 70 -8 100 -11 78 -9 249 -45 288 -61 17 -7 32 -11 32 -9 0 6
129 -40 220 -80 485 -209 887 -588 1128 -1063 116 -228 183 -437 227 -707 8
-45 65 -108 109 -119 39 -10 105 11 137 43 38 38 51 93 39 166 -24 156 -19
135 -54 265 -206 774 -802 1418 -1570 1695 l-89 32 74 48 c244 157 422 350
557 605 44 82 115 268 128 334 2 11 9 46 15 76 31 165 34 429 4 580 -10 50
-14 67 -40 155 -114 387 -387 728 -740 920 -116 64 -299 135 -385 151 -14 2
-49 9 -79 15 -88 18 -99 19 -251 22 -80 2 -170 0 -200 -4z m398 -273 c400 -80
746 -349 931 -724 50 -101 101 -256 119 -364 4 -24 7 -106 7 -183 -1 -128 -5
-180 -20 -242 -3 -13 -7 -31 -9 -41 -2 -10 -16 -54 -31 -98 -97 -281 -295
-519 -566 -679 -77 -46 -223 -112 -264 -119 -5 -1 -26 -7 -45 -14 -19 -6 -51
-13 -70 -17 -19 -3 -53 -9 -75 -13 -53 -9 -355 -9 -423 1 -138 21 -349 103
-487 192 -249 159 -435 399 -523 676 -46 144 -56 208 -56 354 1 130 8 189 39
304 50 186 125 337 239 480 186 234 422 392 698 466 51 14 116 28 143 31 28 4
51 8 53 9 10 9 271 -6 340 -19z"/>
</g>
</svg>
