<svg width="15" height="10" viewBox="0 0 15 10" fill="none" xmlns="http://www.w3.org/2000/svg">
<path d="M12.1874 1.69049L12.1726 3.33478H11.558L10.1059 1.69387H8.13169V1.05318H10.0542V0.229248H5.38526V1.05318H7.30776V1.69387H5.19878L4.24876 2.80653H2.32395V5.03765H1.54366V3.43H0.719727V7.53119H1.54366V5.86158H2.32395V8.20256H4.26117L5.23574 9.23409L10.1039 9.23123L11.5689 7.60383H12.1724L12.1871 9.3412H14.7197V1.71133L12.1874 1.69049ZM13.8958 8.51727H13.0041L12.9894 6.7799H11.2021L9.73679 8.40752L5.59061 8.40997L4.6162 7.37865H3.14788V3.63046H4.62864L5.57866 2.5178H9.73479L11.1869 4.15871H12.9892L13.0039 2.52117L13.8958 2.52851V8.51727Z" fill="white"/>
</svg>
