<svg width="15" height="15" viewBox="0 0 15 15" fill="none" xmlns="http://www.w3.org/2000/svg">
<path d="M13.6999 3.49182L13.7103 3.4786L10.7629 0.958601L9.83446 2.16727L11.3575 3.46926C10.9801 3.7113 10.6803 4.06748 10.497 4.4916C10.3137 4.91571 10.2554 5.38818 10.3296 5.84771C10.4394 6.54693 10.894 7.15126 11.4828 7.49037C12.1437 7.87148 12.7244 7.83726 13.2394 7.64359L13.2284 12.4518C13.2292 12.5806 13.1997 12.7076 13.1424 12.8213C13.0851 12.935 13.0018 13.0318 12.9002 13.103C12.7985 13.1742 12.6816 13.2175 12.5601 13.229C12.4385 13.2405 12.3162 13.2199 12.2041 13.1689C12.1164 13.1293 12.0368 13.072 11.9698 13.0001C11.9017 12.9281 11.8477 12.8426 11.8109 12.7485C11.7741 12.6544 11.7553 12.5536 11.7554 12.4518L11.7724 10.8963C11.7731 10.5901 11.7164 10.2868 11.6055 10.004C11.4945 9.72108 11.3316 9.4642 11.1261 9.24815C10.9209 9.03099 10.677 8.8587 10.4086 8.74112C10.1402 8.62354 9.85245 8.56299 9.56183 8.56292H8.82499V2.34071C8.82499 1.48282 8.16404 0.785156 7.35131 0.785156H2.19341C1.38067 0.785156 0.719727 1.48282 0.719727 2.34071V13.2296C0.719727 14.0875 1.38067 14.7851 2.19341 14.7851H7.35131C8.16404 14.7851 8.82499 14.0875 8.82499 13.2296V10.1185H9.56183C9.66204 10.1185 9.75857 10.1395 9.84994 10.1791C10.0253 10.2602 10.1651 10.4083 10.2412 10.5937C10.2794 10.6894 10.299 10.7924 10.2987 10.8963L10.281 12.4518C10.281 12.7676 10.3392 13.0733 10.4549 13.3603C10.5661 13.6395 10.726 13.8891 10.9272 14.0999C11.1317 14.3181 11.3754 14.4911 11.644 14.6087C11.9126 14.7264 12.2007 14.7864 12.4915 14.7851C12.7907 14.7851 13.0795 14.7245 13.3521 14.6016C13.6159 14.4849 13.8532 14.3161 14.0529 14.103C14.2592 13.8868 14.4228 13.6295 14.5342 13.3461C14.6456 13.0626 14.7027 12.7587 14.702 12.4518L14.7197 5.45182C14.719 5.06108 14.6252 4.6768 14.447 4.33431C14.2688 3.99183 14.0119 3.70212 13.6999 3.49182V3.49182ZM2.19341 2.34071H7.35131L7.35204 5.45182H2.19341V2.34071ZM2.19341 13.2296V7.00737H7.35204L7.35278 13.2296H2.19341ZM12.5092 6.22959C12.3138 6.22959 12.1264 6.14765 11.9882 6.00179C11.85 5.85593 11.7724 5.6581 11.7724 5.45182C11.7724 5.24554 11.85 5.04771 11.9882 4.90185C12.1264 4.75598 12.3138 4.67404 12.5092 4.67404C12.7046 4.67404 12.892 4.75598 13.0302 4.90185C13.1684 5.04771 13.246 5.24554 13.246 5.45182C13.246 5.6581 13.1684 5.85593 13.0302 6.00179C12.892 6.14765 12.7046 6.22959 12.5092 6.22959Z" fill="white"/>
</svg>
