<?xml version="1.0" encoding="iso-8859-1"?>
<!-- Generator: Adobe Illustrator 17.1.0, SVG Export Plug-In . SVG Version: 6.00 Build 0)  -->
<!DOCTYPE svg PUBLIC "-//W3C//DTD SVG 1.1//EN" "http://www.w3.org/Graphics/SVG/1.1/DTD/svg11.dtd">
<svg version="1.1" id="Capa_1" fill="white" xmlns="http://www.w3.org/2000/svg" xmlns:xlink="http://www.w3.org/1999/xlink" x="0px" y="0px"
	 viewBox="0 0 206.667 206.667" style="enable-background:new 0 0 206.667 206.667;" xml:space="preserve">
<path d="M169.568,94.11v52.143c0,33.312-27.102,60.414-60.414,60.414H97.513c-33.313,0-60.414-27.102-60.414-60.414V94.11H169.568z
	 M85.105,58.375V34.87c0-8.316,5.604-15.334,13.229-17.515V0h-0.82C64.2,0,37.099,27.102,37.099,60.414V84.11h61.234v-8.22
	C90.708,73.709,85.105,66.691,85.105,58.375z M111.562,58.375V34.87c0-4.538-3.691-8.229-8.229-8.229s-8.229,3.691-8.229,8.229
	v23.506c0,4.537,3.691,8.229,8.229,8.229S111.562,62.913,111.562,58.375z M109.154,0h-0.82v17.355
	c7.625,2.181,13.229,9.199,13.229,17.515v23.506c0,8.316-5.604,15.334-13.229,17.514v8.22h61.234V60.414
	C169.568,27.102,142.466,0,109.154,0z"/>
<g>
</g>
<g>
</g>
<g>
</g>
<g>
</g>
<g>
</g>
<g>
</g>
<g>
</g>
<g>
</g>
<g>
</g>
<g>
</g>
<g>
</g>
<g>
</g>
<g>
</g>
<g>
</g>
<g>
</g>
</svg>
