<?xml version="1.0" encoding="iso-8859-1"?>
<!-- Generator: Adobe Illustrator 18.0.0, SVG Export Plug-In . SVG Version: 6.00 Build 0)  -->
<!DOCTYPE svg PUBLIC "-//W3C//DTD SVG 1.1//EN" "http://www.w3.org/Graphics/SVG/1.1/DTD/svg11.dtd">
<svg version="1.1" fill="white" id="Capa_1" xmlns="http://www.w3.org/2000/svg" xmlns:xlink="http://www.w3.org/1999/xlink" x="0px" y="0px"
	 viewBox="0 0 217.382 217.382" style="enable-background:new 0 0 217.382 217.382;" xml:space="preserve">
<path d="M181.535,20.356l7.553-7.553c2.929-2.93,2.929-7.678,0-10.607c-2.93-2.928-7.678-2.928-10.607,0l-15.755,15.755
	c-27.092,1.669-48.623,24.226-48.623,51.73v8.525H46.921H9.149c-4.142,0-7.5,3.357-7.5,7.5s3.358,7.5,7.5,7.5h28.77l-11.793,64.268
	c-4.075-6.605-7.401-13.787-9.825-21.465c-1.247-3.949-5.457-6.136-9.41-4.895c-3.95,1.247-6.141,5.46-4.894,9.41
	c6.989,22.138,20.572,41.202,39.281,55.134c19.084,14.212,41.784,21.724,65.645,21.724c23.941,0,46.704-7.56,65.826-21.861
	c18.483-13.823,32.418-33.515,39.236-55.445c1.23-3.955-0.98-8.158-4.936-9.389c-3.957-1.231-8.159,0.98-9.389,4.935
	c-2.404,7.733-5.72,14.967-9.792,21.618l-11.81-64.034h32.176c4.143,0,7.5-3.357,7.5-7.5V67.64
	C215.735,45.627,201.375,26.918,181.535,20.356z M52.477,185.342c7.338-23.491,29.557-40.103,54.51-40.103
	c24.917,0,47.134,16.591,54.49,40.048c-15.559,10.878-34.429,17.095-54.555,17.095C86.86,202.382,68.026,196.185,52.477,185.342z
	 M200.735,78.207h-33.686c-2.228,0-4.339,0.99-5.765,2.701c-1.425,1.712-2.015,3.969-1.611,6.159l15.887,86.144
	c-0.604,0.631-1.214,1.254-1.833,1.867c-4.577-11.165-11.946-21.142-21.417-28.808c-12.769-10.338-28.865-16.03-45.323-16.03
	c-16.481,0-32.596,5.708-45.376,16.072c-9.469,7.68-16.832,17.667-21.397,28.841c-0.593-0.585-1.177-1.18-1.755-1.78l14.71-80.166
	h68.433c4.143,0,7.5-3.357,7.5-7.5V69.681c0-20.313,16.526-36.84,36.84-36.84c19.185,0,34.793,15.61,34.793,34.799V78.207z"/>
<g>
</g>
<g>
</g>
<g>
</g>
<g>
</g>
<g>
</g>
<g>
</g>
<g>
</g>
<g>
</g>
<g>
</g>
<g>
</g>
<g>
</g>
<g>
</g>
<g>
</g>
<g>
</g>
<g>
</g>
</svg>
