<?xml version="1.0" encoding="iso-8859-1"?>
<!-- Generator: Adobe Illustrator 18.0.0, SVG Export Plug-In . SVG Version: 6.00 Build 0)  -->
<!DOCTYPE svg PUBLIC "-//W3C//DTD SVG 1.1//EN" "http://www.w3.org/Graphics/SVG/1.1/DTD/svg11.dtd">
<svg fill="#fff" version="1.1" id="Capa_1" xmlns="http://www.w3.org/2000/svg" xmlns:xlink="http://www.w3.org/1999/xlink" x="0px" y="0px"
	 viewBox="0 0 297 297" style="enable-background:new 0 0 297 297;" xml:space="preserve">
<g>
	<path d="M239.294,50.134c-2.444,0-4.805,0.357-7.041,1.011c-1.389-4.188-3.65-9.265-7.157-14.589
		c-6.541-9.934-19.362-23.45-43.294-31.432c-34.437-11.486-60.546-1.511-76.383,8.88C93.775,21.645,85.93,30.601,82.041,35.648
		h-4.165c-5.52,0-9.996,4.476-9.996,9.996v36.874c0,2.896,1.239,5.497,3.208,7.323c-1.074,4.622-1.656,9.429-1.656,14.373
		c0,3.072,0.231,6.089,0.653,9.046l-24.623,24.627c-1.874,1.874-2.928,4.417-2.928,7.068v7.692
		c-6.393,13.22-9.99,28.036-9.99,43.682C32.543,251.839,77.674,297,133.147,297c55.473,0,100.602-45.161,100.602-100.671
		c0-18.223-4.875-35.322-13.374-50.08c0.407-1.223,0.79-2.459,1.147-3.707c0.998-3.491,0.024-7.247-2.542-9.815l-22.415-22.419
		c0.191-2.007,0.298-4.038,0.298-6.094c0-4.946-0.576-9.758-1.65-14.382c1.963-1.825,3.199-4.423,3.199-7.314V51.043
		c2.765,0.521,5.395,1.68,7.91,3.483c5.701,4.089,8.811,9.961,8.899,10.128c0.221,0.436,0.473,0.848,0.749,1.24
		c-1.177,2.91-1.831,6.085-1.831,9.411c0,13.881,11.285,25.173,25.156,25.173c13.875,0,25.162-11.293,25.162-25.173
		C264.457,61.426,253.169,50.134,239.294,50.134z M176.87,104.214c0,24.132-19.614,43.765-43.723,43.765
		c-24.109,0-43.723-19.633-43.723-43.765c0-4.051,0.558-7.974,1.593-11.7h84.254C176.31,96.239,176.87,100.161,176.87,104.214z
		 M178.42,55.64v16.881H87.872V55.64H178.42z M175.476,24.089c5.926,1.976,10.956,4.336,15.222,6.892
		c-5.178,0.557-10.467,2.119-15.756,4.666h-65.331C122.587,24.891,144.735,13.833,175.476,24.089z M62.526,149.094l14.575-14.578
		c3.46,6.382,7.978,12.11,13.316,16.948v67.025H62.526V149.094z M213.757,196.329c0,44.486-36.161,80.679-80.61,80.679
		c-29.021,0-54.502-15.434-68.7-38.526h35.966c5.52,0,9.996-4.476,9.996-9.996v-22.157c7.315,1.873,14.934,2.885,22.737,2.885
		c30.786,0,59.02-15.604,75.854-40.117C212.071,177.607,213.757,186.771,213.757,196.329z M200.494,142.516
		c-10.426,27.765-37.342,46.705-67.347,46.705c-7.886,0-15.541-1.294-22.737-3.7v-21.763c7.067,2.712,14.729,4.212,22.737,4.212
		c25.051,0,46.763-14.548,57.166-35.639L200.494,142.516z M239.294,80.486c-2.847,0-5.163-2.324-5.163-5.181
		c0-2.855,2.316-5.179,5.163-5.179c2.851,0,5.17,2.323,5.17,5.179C244.464,78.162,242.145,80.486,239.294,80.486z"/>
	<path d="M133.146,210.62c-2.629,0-5.208,1.07-7.068,2.93c-1.859,1.859-2.929,4.438-2.929,7.067c0,2.64,1.07,5.208,2.929,7.068
		c1.86,1.869,4.439,2.939,7.068,2.939c2.629,0,5.208-1.07,7.068-2.939c1.859-1.849,2.929-4.428,2.929-7.068
		c0-2.629-1.07-5.208-2.929-7.067C138.354,211.69,135.775,210.62,133.146,210.62z"/>
	<path d="M133.146,130.831c2.629,0,5.208-1.07,7.068-2.93c1.859-1.859,2.929-4.438,2.929-7.067s-1.07-5.208-2.929-7.068
		c-1.86-1.86-4.439-2.929-7.068-2.929c-2.629,0-5.208,1.069-7.068,2.929c-1.859,1.86-2.929,4.439-2.929,7.068
		s1.07,5.208,2.929,7.067C127.938,129.761,130.518,130.831,133.146,130.831z"/>
	<path d="M114.073,112.157c1.709,0,3.389-0.699,4.599-1.909c1.21-1.2,1.899-2.88,1.899-4.589c0-1.709-0.689-3.388-1.899-4.598
		c-1.21-1.209-2.89-1.9-4.599-1.9s-3.379,0.69-4.588,1.9c-1.21,1.21-1.91,2.889-1.91,4.598c0,1.709,0.7,3.379,1.91,4.589
		C110.695,111.458,112.364,112.157,114.073,112.157z"/>
	<path d="M152.21,112.157c1.709,0,3.388-0.699,4.598-1.909c1.21-1.2,1.9-2.88,1.9-4.589c0-1.719-0.69-3.388-1.9-4.598
		c-1.209-1.209-2.888-1.9-4.598-1.9c-1.709,0-3.379,0.69-4.588,1.9c-1.21,1.21-1.909,2.879-1.909,4.598
		c0,1.709,0.7,3.389,1.909,4.589C148.831,111.458,150.5,112.157,152.21,112.157z"/>
</g>
<g>
</g>
<g>
</g>
<g>
</g>
<g>
</g>
<g>
</g>
<g>
</g>
<g>
</g>
<g>
</g>
<g>
</g>
<g>
</g>
<g>
</g>
<g>
</g>
<g>
</g>
<g>
</g>
<g>
</g>
</svg>
