<?xml version="1.0" encoding="iso-8859-1"?>
<!-- Generator: Adobe Illustrator 19.0.0, SVG Export Plug-In . SVG Version: 6.00 Build 0)  -->
<svg version="1.1" id="Layer_1" xmlns="http://www.w3.org/2000/svg" xmlns:xlink="http://www.w3.org/1999/xlink" x="0px" y="0px"
	fill="white" viewBox="0 0 512.002 512.002" style="enable-background:new 0 0 512.002 512.002;" xml:space="preserve">
<g>
	<g>
		<path d="M313.324,0H198.677c-12.555,0-20.436,13.625-14.151,24.511l53.582,92.806l-90.795,260.556
			c-1.884,5.407-0.801,11.405,2.855,15.81l24.905,30.021c2.178,2.625,6.206,2.625,8.384,0l136.908-165.029
			c1.218-1.47,1.58-3.469,0.951-5.27l-47.422-136.087l53.582-92.806C333.753,13.639,325.893,0,313.324,0z"/>
	</g>
</g>
<g>
	<g>
		<path d="M364.69,377.874l-26.626-76.408c-1.396-4.003-6.629-4.948-9.336-1.685L203.382,450.873c-1.673,2.016-1.673,4.939,0,6.956
			l40.044,48.269c6.525,7.867,18.618,7.876,25.151,0l93.257-112.412C365.491,389.279,366.572,383.281,364.69,377.874z"/>
	</g>
</g>
<g>
</g>
<g>
</g>
<g>
</g>
<g>
</g>
<g>
</g>
<g>
</g>
<g>
</g>
<g>
</g>
<g>
</g>
<g>
</g>
<g>
</g>
<g>
</g>
<g>
</g>
<g>
</g>
<g>
</g>
</svg>
