<?xml version="1.0" encoding="iso-8859-1"?>
<!-- Generator: Adobe Illustrator 19.0.0, SVG Export Plug-In . SVG Version: 6.00 Build 0)  -->
<svg version="1.1" id="Capa_1" xmlns="http://www.w3.org/2000/svg" xmlns:xlink="http://www.w3.org/1999/xlink" x="0px" y="0px"
	fill="white" viewBox="0 0 490.002 490.002" style="enable-background:new 0 0 490.002 490.002;" xml:space="preserve">
<g>
	<g>
		<g>
			<rect x="12.201" y="314.402" width="33.8" height="127.8"/>
			<rect x="444.001" y="314.402" width="33.8" height="127.8"/>
			<path d="M340.201,322.902h-193.5c-5.4,0-9.7,4.3-9.7,9.7s4.3,9.7,9.7,9.7h150.4v10.5c0,5.4,4.3,9.7,9.7,9.7
				c5.4,0,9.7-4.3,9.7-9.7v-10.5h24.1c5.4,0,9.7-4.3,9.7-9.7C349.901,327.202,345.601,322.902,340.201,322.902z"/>
			<path d="M337.501,40.402h-185c-48.2,0-87,39.2-87,87v331.1c0,17.5,14,31.5,31.5,31.5h296.5c17.5,0,31.5-14,31.5-31.5v-331.1
				C424.501,79.202,385.701,40.402,337.501,40.402z M133.101,122.802c0-5.8,4.7-10.1,10.1-10.1h203.6c5.8,0,10.1,4.7,10.1,10.1v80.8
				c0,5.8-4.7,10.1-10.1,10.1h-203.6c-5.8,0-10.1-4.7-10.1-10.1L133.101,122.802L133.101,122.802z M376.701,403.702
				c0,26.8-21.8,48.2-48.2,48.2h-170.2c-26.8,0-48.2-21.8-48.2-48.2v-57.9c0-26.8,21.8-48.2,48.2-48.2h170.2
				c26.8,0,48.2,21.8,48.2,48.2V403.702z"/>
			<g>
				<path d="M403.501,1.902c-4.3-3.1-10.1-2.3-13.2,1.6l-18.3,23.3c31.1,10.9,55.6,35.8,66.1,66.8l13.3-46.8
					c1.1-3.7-0.3-7.8-3.3-10.2L403.501,1.902z"/>
			</g>
			<g>
				<path d="M99.301,3.902c-3.2-4.1-9.1-4.8-13.2-1.6l-44,34.2c-3.1,2.3-5.1,6.2-3.9,10.5l13.2,47.4c10.5-31.5,35-56.3,66.1-67.2
					L99.301,3.902z"/>
			</g>
		</g>
	</g>
</g>
<g>
</g>
<g>
</g>
<g>
</g>
<g>
</g>
<g>
</g>
<g>
</g>
<g>
</g>
<g>
</g>
<g>
</g>
<g>
</g>
<g>
</g>
<g>
</g>
<g>
</g>
<g>
</g>
<g>
</g>
</svg>
