<?xml version="1.0" encoding="iso-8859-1"?>
<!-- Generator: Adobe Illustrator 19.0.0, SVG Export Plug-In . SVG Version: 6.00 Build 0)  -->
<svg version="1.1" id="Layer_1" xmlns="http://www.w3.org/2000/svg" xmlns:xlink="http://www.w3.org/1999/xlink" x="0px" y="0px"
	fill="white" viewBox="0 0 511.999 511.999" style="enable-background:new 0 0 511.999 511.999;" xml:space="preserve">
<g>
	<g>
		<path d="M481.58,211.735v-49.014h-15.209c-24.568,0-44.555-19.987-44.555-44.555V0h-90.793v54.019
			c0,41.368-33.656,75.025-75.025,75.025s-75.025-33.656-75.025-75.025V0H90.18v118.165c0,24.568-19.987,44.555-44.555,44.555
			h-15.21v49.014h170.465v113.125H30.416v30.417h170.465v113.125H30.416v43.598H481.58v-43.598H311.115V355.277H481.58v-30.417
			H311.115V211.735H481.58z"/>
	</g>
</g>
<g>
	<g>
		<rect x="30.416" y="385.69" width="140.051" height="52.291"/>
	</g>
</g>
<g>
	<g>
		<rect x="341.533" y="385.69" width="140.051" height="52.291"/>
	</g>
</g>
<g>
	<g>
		<rect x="30.416" y="242.151" width="140.051" height="52.29"/>
	</g>
</g>
<g>
	<g>
		<rect x="341.533" y="242.151" width="140.051" height="52.29"/>
	</g>
</g>
<g>
</g>
<g>
</g>
<g>
</g>
<g>
</g>
<g>
</g>
<g>
</g>
<g>
</g>
<g>
</g>
<g>
</g>
<g>
</g>
<g>
</g>
<g>
</g>
<g>
</g>
<g>
</g>
<g>
</g>
</svg>
