<?xml version="1.0" encoding="iso-8859-1"?>
<!-- Generator: Adobe Illustrator 19.0.0, SVG Export Plug-In . SVG Version: 6.00 Build 0)  -->
<svg version="1.1" id="Layer_1" xmlns="http://www.w3.org/2000/svg" xmlns:xlink="http://www.w3.org/1999/xlink" x="0px" y="0px"
	 fill="white" viewBox="0 0 512 512" style="enable-background:new 0 0 512 512;" xml:space="preserve">
<g>
	<g>
		<path d="M278.757,249.941c-7.248-2.052-14.931-3.129-22.649-3.129c-7.974,0-15.699,1.155-23.165,3.343
			c0.011,0.224,0.131,0.446,0.131,0.672v40.228c0,0.172-0.162,0.34-0.163,0.511c6.903-4.22,14.844-6.547,23.165-6.547
			c8.028,0,15.941,2.175,22.676,6.116c0-0.027,0.173-0.054,0.173-0.082v-40.226C278.925,250.528,278.737,250.236,278.757,249.941z"
			/>
	</g>
</g>
<g>
	<g>
		<path d="M215.984,238.764c-3.505-4.253-8.811-6.963-14.75-6.963H65.898l45.354-44.577h17.385c10.551,0,19.104-8.554,19.104-19.104
			c0-10.551-8.554-19.104-19.104-19.104h-25.201c-5.009,0-9.82,1.968-13.392,5.479L5.712,237.38C2.058,240.971,0,245.881,0,251.005
			v36.292c0,40.529,32.666,73.715,73.543,75.598c1.215,0.056,2.435,0.09,3.664,0.09h67.197c20.364,0,39.443-7.816,53.722-22.008
			c14.325-14.238,22.212-33.302,22.212-53.678v-36.393C220.338,246.294,218.704,242.065,215.984,238.764z"/>
	</g>
</g>
<g>
	<g>
		<path d="M506.288,237.38l-84.331-82.885c-3.573-3.511-8.383-5.479-13.392-5.479h-25.201c-10.551,0-19.104,8.554-19.104,19.104
			c0,10.551,8.554,19.104,19.104,19.104h17.385l45.354,44.577H310.766c-6.032,0-11.404,2.803-14.905,7.171
			c-2.622,3.269-4.199,7.415-4.199,11.934v36.391c0,20.377,7.889,39.442,22.212,53.678c14.277,14.193,33.358,22.008,53.722,22.008
			h67.197c0.978,0,1.949-0.037,2.919-0.073C478.935,361.398,512,328.07,512,287.296v-36.292
			C512,245.881,509.942,240.971,506.288,237.38z"/>
	</g>
</g>
<g>
</g>
<g>
</g>
<g>
</g>
<g>
</g>
<g>
</g>
<g>
</g>
<g>
</g>
<g>
</g>
<g>
</g>
<g>
</g>
<g>
</g>
<g>
</g>
<g>
</g>
<g>
</g>
<g>
</g>
</svg>
