<?xml version="1.0" encoding="iso-8859-1"?>
<!-- Generator: Adobe Illustrator 19.0.0, SVG Export Plug-In . SVG Version: 6.00 Build 0)  -->
<svg version="1.1" id="Layer_1" xmlns="http://www.w3.org/2000/svg" xmlns:xlink="http://www.w3.org/1999/xlink" x="0px" y="0px"
	 fill="white" viewBox="0 0 512.001 512.001" style="enable-background:new 0 0 512.001 512.001;" xml:space="preserve">
<g>
	<g>
		<path d="M504.437,112.029c-5.446-4.447-12.419-5.797-19.128-3.703L372.382,143.54c-38.027,11.858-76.904,17.906-115.555,17.975
			h-1.66c-38.644-0.07-77.522-6.117-115.55-17.975L26.691,108.326c-6.708-2.091-13.681-0.743-19.127,3.703
			c-5.445,4.447-8.162,11.008-7.453,18.002l18.735,184.856c3.007,29.664,18.931,56.202,43.693,72.811
			c24.761,16.608,55.358,21.273,83.944,12.801l33.476-9.922c25.057-7.427,50.476-11.21,75.551-11.245h0.962
			c25.091,0.034,50.509,3.818,75.567,11.245l33.476,9.922c28.583,8.473,59.18,3.807,83.943-12.801
			c24.761-16.608,40.688-43.147,43.694-72.811l18.738-184.857C512.599,123.037,509.883,116.477,504.437,112.029z M230.952,272.691
			c-17.071,29.498-48.811,47.823-82.834,47.823c-34.023,0-65.763-18.326-82.834-47.823c-2.238-3.868-2.238-8.636,0-12.504
			c17.07-29.5,48.81-47.824,82.834-47.824s65.763,18.326,82.834,47.824C233.19,264.055,233.19,268.823,230.952,272.691z
			 M446.717,272.691c-17.073,29.498-48.811,47.823-82.834,47.823c-34.023,0-65.764-18.326-82.833-47.823
			c-2.238-3.868-2.238-8.636,0-12.504c17.07-29.5,48.81-47.824,82.833-47.824c34.023,0,65.764,18.326,82.834,47.824
			C448.955,264.055,448.955,268.823,446.717,272.691z"/>
	</g>
</g>
<g>
	<g>
		<path d="M363.883,237.327c-22.646,0-43.926,10.993-57.153,29.113c13.228,18.12,34.507,29.111,57.153,29.111
			s43.925-10.993,57.153-29.111C407.808,248.318,386.528,237.327,363.883,237.327z"/>
	</g>
</g>
<g>
	<g>
		<path d="M148.118,237.327c-22.646,0-43.926,10.993-57.153,29.113c13.227,18.12,34.508,29.111,57.153,29.111
			c22.644,0,43.926-10.993,57.153-29.111C192.044,248.318,170.762,237.327,148.118,237.327z"/>
	</g>
</g>
<g>
</g>
<g>
</g>
<g>
</g>
<g>
</g>
<g>
</g>
<g>
</g>
<g>
</g>
<g>
</g>
<g>
</g>
<g>
</g>
<g>
</g>
<g>
</g>
<g>
</g>
<g>
</g>
<g>
</g>
</svg>
