<?xml version="1.0" encoding="iso-8859-1"?>
<!-- Generator: Adobe Illustrator 18.0.0, SVG Export Plug-In . SVG Version: 6.00 Build 0)  -->
<!DOCTYPE svg PUBLIC "-//W3C//DTD SVG 1.1//EN" "http://www.w3.org/Graphics/SVG/1.1/DTD/svg11.dtd">
<svg fill="#fff" version="1.1" id="Capa_1" xmlns="http://www.w3.org/2000/svg" xmlns:xlink="http://www.w3.org/1999/xlink" x="0px" y="0px"
	 viewBox="0 0 44.063 44.063" style="enable-background:new 0 0 44.063 44.063;" xml:space="preserve">
<g>
	<path d="M2.354,26.422C2.324,26.44,2.3,26.467,2.27,26.486c0.446-0.283,0.942-0.496,1.485-0.603
		c1.759-0.351,2.273-0.881,2.413-1.093c0.071-0.107,0.137-0.254,0.08-0.521l-0.021-0.206v-3c0-0.553,0.447-1,1-1s1,0.447,1,1v2.906
		c0.119,0.692-0.015,1.354-0.39,1.922c-0.613,0.931-1.855,1.587-3.692,1.952c-0.937,0.187-1.628,0.87-1.851,1.83
		c-0.175,0.755-0.036,1.81,0.876,2.504l0.476,0.362l0.027,0.68c-0.086,0.564-0.148,2.238,0.586,3.152
		c0.339,0.423,0.827,0.649,1.493,0.693l0.535,0.035c3.318,0.212,5.939,0.38,5.939,4.963v2h3v-2c0-0.553,0.447-1,1-1
		c0.553,0,1,0.447,1,1v2h2v-2c0-0.553,0.447-1,1-1s1,0.447,1,1v2h2v-2c0-0.553,0.447-1,1-1s1,0.447,1,1v2h2v-2c0-0.553,0.447-1,1-1
		s1,0.447,1,1v2h3v-2c0-4.583,2.621-4.751,5.939-4.963l0.535-0.035c0.666-0.044,1.154-0.271,1.493-0.693
		c0.734-0.914,0.672-2.588,0.585-3.155l-0.091-0.597l0.485-0.361l0.109-0.081c0.912-0.694,1.051-1.749,0.876-2.504
		c-0.223-0.96-0.914-1.644-1.85-1.83c-1.838-0.365-3.08-1.021-3.693-1.952c-0.375-0.567-0.509-1.229-0.39-1.922v-2.906
		c0-0.553,0.447-1,1-1s1,0.447,1,1l-0.021,3.206c-0.057,0.267,0.009,0.413,0.08,0.521c0.14,0.212,0.654,0.742,2.414,1.093
		c0.364,0.072,0.705,0.196,1.028,0.349c-0.002-0.001-0.003-0.002-0.005-0.003l0.275-0.777c2.131-8.113,1.487-14.461-1.912-18.869
		C35.502,0.641,27.148,0,23.768,0c-0.89,0-1.509,0.041-1.737,0.06C21.802,0.041,21.182,0,20.293,0C16.914,0,8.558,0.641,3.976,6.582
		c-3.399,4.407-4.043,10.756-1.903,18.902L2.354,26.422z M36.699,12.913c-0.469-0.292-0.612-0.908-0.321-1.378
		c0.292-0.47,0.907-0.61,1.378-0.321c1.594,0.991,2.472,2.358,2.472,3.85s-0.878,2.858-2.472,3.85
		c-0.165,0.102-0.347,0.15-0.527,0.15c-0.334,0-0.661-0.167-0.851-0.472c-0.291-0.47-0.147-1.086,0.321-1.378
		c0.985-0.612,1.528-1.376,1.528-2.15S37.684,13.525,36.699,12.913z M24.286,21.159c0.508-2.88,5.459-3.152,6.447-3.178
		c0,0,0,0,0.001,0c1.008,0,2.81,0.482,3.336,2.289c0.345,1.182,0.149,3.202-0.893,4.776c-0.759,1.147-1.825,1.834-3.085,1.983
		c-0.188,0.022-0.374,0.033-0.558,0.033c-1.507,0-2.979-0.724-4.038-1.986C24.512,23.904,24.059,22.439,24.286,21.159z
		 M21.166,30.128c0.026-0.083,0.056-0.175,0.091-0.269v-0.774l0.932-0.02c0.021-0.002,0.042-0.002,0.063-0.002h1l0.004,0.793
		c0.036,0.095,0.065,0.188,0.092,0.272c0.04,0.125,0.081,0.261,0.111,0.335l2.371,4.143c0.419,0.731,0.557,1.553,0.388,2.313
		c-0.249,1.117-1.056,1.784-2.158,1.784h-0.032c-0.604-0.006-1.179-0.212-1.661-0.595c-0.055-0.043-0.166-0.042-0.217-0.001
		c-0.482,0.384-1.058,0.59-1.664,0.596c-1.134,0-1.94-0.667-2.189-1.784c-0.168-0.762-0.029-1.583,0.389-2.314l2.403-4.205
		C21.086,30.39,21.127,30.254,21.166,30.128z M10.486,20.27c0.527-1.807,2.33-2.288,3.313-2.288
		c1.013,0.025,5.964,0.298,6.473,3.178c0.227,1.28-0.227,2.745-1.212,3.918c-1.059,1.263-2.53,1.986-4.037,1.986
		c-0.184,0-0.37-0.011-0.558-0.033c-1.26-0.149-2.327-0.836-3.086-1.983C10.337,23.473,10.141,21.452,10.486,20.27z M6.699,11.214
		c0.471-0.289,1.086-0.148,1.378,0.321c0.291,0.47,0.147,1.086-0.321,1.378c-0.985,0.612-1.528,1.376-1.528,2.15
		s0.543,1.538,1.528,2.15c0.469,0.292,0.612,0.908,0.321,1.378c-0.189,0.305-0.517,0.472-0.851,0.472
		c-0.181,0-0.362-0.049-0.527-0.15c-1.594-0.991-2.472-2.358-2.472-3.85S5.105,12.205,6.699,11.214z"/>
</g>
<g>
</g>
<g>
</g>
<g>
</g>
<g>
</g>
<g>
</g>
<g>
</g>
<g>
</g>
<g>
</g>
<g>
</g>
<g>
</g>
<g>
</g>
<g>
</g>
<g>
</g>
<g>
</g>
<g>
</g>
</svg>
